/* XPM */
static char *result[] = {
/* columns rows colors chars-per-pixel */
"12 12 6 1 ",
"  c #E6E6E6",
". c gray91",
"X c gray94",
"o c #F4F4F4",
"O c gray98",
"+ c white",
/* pixels */
"++++++++++++",
"++++++++++++",
"++++++++++++",
"++++++++++++",
"++++++++++++",
"++++++++++++",
"++++++++++++",
"++++++++++++",
"++++++++++++",
"o++++++++++o",
".o++++++++o.",
"  XO++++OX  "
};
